<svg width="24" height="24" viewBox="0 0 24 24" fill="none" xmlns="http://www.w3.org/2000/svg">
<path fill-rule="evenodd" clip-rule="evenodd" d="M16.9198 15.5056L21.5 20L20 21.5L15.5056 16.9199C14.1509 17.9729 12.4487 18.6 10.6 18.6C6.1817 18.6 2.59998 15.0183 2.59998 10.6C2.59998 6.18173 6.1817 2.60001 10.6 2.60001C15.0183 2.60001 18.6 6.18173 18.6 10.6C18.6 12.4487 17.9729 14.151 16.9198 15.5056ZM10.6 16.6C13.9137 16.6 16.6 13.9137 16.6 10.6C16.6 7.2863 13.9137 4.60001 10.6 4.60001C7.28627 4.60001 4.59998 7.2863 4.59998 10.6C4.59998 13.9137 7.28627 16.6 10.6 16.6Z" fill="#303240"/>
</svg>
