<svg width="18" height="18" viewBox="0 0 18 18" fill="none" xmlns="http://www.w3.org/2000/svg">
<path d="M2.76924 2.25L7.35576 2.25C7.64254 2.25 7.875 2.48246 7.875 2.76923V7.35577C7.875 7.64254 7.64254 7.875 7.35576 7.875H2.76924C2.48246 7.875 2.25 7.64254 2.25 7.35577V2.76923C2.25 2.48246 2.48246 2.25 2.76924 2.25Z" fill="#303240"/>
<path d="M10.6875 2.25H15.2308C15.5175 2.25 15.75 2.48246 15.75 2.76923V7.35577C15.75 7.64254 15.5175 7.875 15.2308 7.875H10.6875C10.4007 7.875 10.1683 7.64254 10.1683 7.35577V2.76923C10.1683 2.48246 10.4007 2.25 10.6875 2.25Z" fill="#303240"/>
<path d="M7.35576 10.1683H2.76924C2.48246 10.1683 2.25 10.4007 2.25 10.6875L2.25 15.2308C2.25 15.5175 2.48246 15.75 2.76924 15.75H7.35576C7.64254 15.75 7.875 15.5175 7.875 15.2308V10.6875C7.875 10.4007 7.64254 10.1683 7.35576 10.1683Z" fill="#303240"/>
<path d="M10.6875 10.1683H15.2308C15.5175 10.1683 15.75 10.4007 15.75 10.6875V15.2308C15.75 15.5175 15.5175 15.75 15.2308 15.75H10.6875C10.4007 15.75 10.1683 15.5175 10.1683 15.2308V10.6875C10.1683 10.4007 10.4007 10.1683 10.6875 10.1683Z" fill="#303240"/>
</svg>
