<svg width="18" height="18" viewBox="0 0 18 18" fill="none" xmlns="http://www.w3.org/2000/svg">
<path d="M5.78509 14.8956C5.2555 15.2151 4.60214 14.741 4.74152 14.1385L5.49252 10.8918C5.55095 10.6392 5.46498 10.375 5.26907 10.2052L2.74948 8.02077C2.28221 7.61566 2.53138 6.84797 3.14749 6.79449L6.47991 6.50522C6.73834 6.48278 6.96317 6.31928 7.06415 6.08035L8.35522 3.02559C8.59612 2.4556 9.40388 2.4556 9.64478 3.02559L10.9358 6.08035C11.0368 6.31928 11.2617 6.48278 11.5201 6.50522L14.8525 6.79449C15.4686 6.84797 15.7178 7.61566 15.2505 8.02077L12.7309 10.2052C12.535 10.375 12.449 10.6392 12.5075 10.8918L13.2585 14.1385C13.3979 14.741 12.7445 15.2151 12.2149 14.8956L9.36157 13.1744C9.13919 13.0402 8.86081 13.0402 8.63843 13.1744L5.78509 14.8956Z" fill="#DE7BD7"/>
</svg>
