<svg width="24" height="24" viewBox="0 0 24 24" fill="none" xmlns="http://www.w3.org/2000/svg">
<path d="M12 16.95C13.02 16.95 13.9462 16.6613 14.7788 16.0838C15.6113 15.5063 16.215 14.745 16.59 13.8H7.41C7.785 14.745 8.38875 15.5063 9.22125 16.0838C10.0538 16.6613 10.98 16.95 12 16.95ZM8.22 11.1L9.21 10.155L10.155 11.1L11.1 10.155L9.21 8.22L7.275 10.155L8.22 11.1ZM13.845 11.1L14.79 10.155L15.78 11.1L16.725 10.155L14.79 8.22L12.9 10.155L13.845 11.1ZM12 21C10.755 21 9.585 20.7638 8.49 20.2913C7.395 19.8188 6.4425 19.1775 5.6325 18.3675C4.8225 17.5575 4.18125 16.605 3.70875 15.51C3.23625 14.415 3 13.245 3 12C3 10.755 3.23625 9.585 3.70875 8.49C4.18125 7.395 4.8225 6.4425 5.6325 5.6325C6.4425 4.8225 7.395 4.18125 8.49 3.70875C9.585 3.23625 10.755 3 12 3C13.245 3 14.415 3.23625 15.51 3.70875C16.605 4.18125 17.5575 4.8225 18.3675 5.6325C19.1775 6.4425 19.8188 7.395 20.2913 8.49C20.7638 9.585 21 10.755 21 12C21 13.245 20.7638 14.415 20.2913 15.51C19.8188 16.605 19.1775 17.5575 18.3675 18.3675C17.5575 19.1775 16.605 19.8188 15.51 20.2913C14.415 20.7638 13.245 21 12 21ZM12 19.2C14.01 19.2 15.7125 18.5025 17.1075 17.1075C18.5025 15.7125 19.2 14.01 19.2 12C19.2 9.99 18.5025 8.2875 17.1075 6.8925C15.7125 5.4975 14.01 4.8 12 4.8C9.99 4.8 8.2875 5.4975 6.8925 6.8925C5.4975 8.2875 4.8 9.99 4.8 12C4.8 14.01 5.4975 15.7125 6.8925 17.1075C8.2875 18.5025 9.99 19.2 12 19.2Z" fill="#303240"/>
</svg>
