<svg width="16" height="16" viewBox="0 0 16 16" fill="none" xmlns="http://www.w3.org/2000/svg">
<path d="M9.12467 9.6732C9.64262 10.5015 9.95363 11.6743 9.94098 13.0196C10.3491 13.0196 16.0633 8 13.6144 0.888885C10.7573 1.72549 6.67573 5.07189 6.26757 7.16339C6.98409 7.36439 7.76561 7.90483 8.30835 8.4183C8.71651 7.16339 10.3491 5.49019 11.5736 4.65359C10.3491 6.32679 9.53282 7.5817 9.12467 9.6732Z" fill="#B3E87D"/>
<path d="M1.77783 8.00001C2.18599 11.7647 4.22677 14.6928 7.49202 15.1111C7.49202 13.0196 5.04308 10.0915 4.22677 9.67321C6.67571 10.0915 8.30834 12.183 9.12465 14.6928C9.12465 14.6928 9.5328 6.32681 1.77783 8.00001Z" fill="#B3E87D"/>
</svg>
